<svg id="visual" viewBox="0 0 400 300" width="400" height="300" xmlns="http://www.w3.org/2000/svg" xmlns:xlink="http://www.w3.org/1999/xlink" version="1.1"><path d="M0 53L13.3 51.7C26.7 50.3 53.3 47.7 80 54.3C106.7 61 133.3 77 160 87.8C186.7 98.7 213.3 104.3 240 103.7C266.7 103 293.3 96 320 88.7C346.7 81.3 373.3 73.7 386.7 69.8L400 66L400 0L386.7 0C373.3 0 346.7 0 320 0C293.3 0 266.7 0 240 0C213.3 0 186.7 0 160 0C133.3 0 106.7 0 80 0C53.3 0 26.7 0 13.3 0L0 0Z" fill="#af0000" stroke-linecap="round" stroke-linejoin="miter"></path></svg>