<?xml version="1.0" encoding="utf-8"?>
<!-- Generator: Adobe Illustrator 26.0.3, SVG Export Plug-In . SVG Version: 6.00 Build 0)  -->
<svg version="1.1" id="Layer_1" transform="matrix(-1, 0, 0, 1, 0, 0)"
	 xmlns="http://www.w3.org/2000/svg" xmlns:xlink="http://www.w3.org/1999/xlink" x="0px" y="0px" viewBox="0 0 100 100"
	 style="enable-background:new 0 0 100 100;" xml:space="preserve">
<style type="text/css">
	.st0{fill:none;stroke:#25424F;stroke-width:6.25;stroke-linecap:round;stroke-linejoin:round;stroke-miterlimit:16.6667;}
</style>
<g id="background">
</g>
<g id="tracer">
</g>
<g id="icon">
	<path class="st0" d="M3.7,29.7v45.7c0,8.9,6.3,12.6,14.1,8.2l11-6.3c2.4-1.4,6.4-1.5,8.9-0.2l24.7,12.4c2.5,1.2,6.5,1.1,8.9-0.2
		l20.4-11.7c2.6-1.5,4.7-5.2,4.7-8.2V23.6c0-8.9-6.3-12.6-14.1-8.2l-11,6.3c-2.4,1.4-6.4,1.5-8.9,0.2L37.7,9.6
		c-2.5-1.2-6.5-1.1-8.9,0.2L8.5,21.5C5.8,23,3.7,26.7,3.7,29.7z"/>
	<path class="st0" d="M33.2,11.9V73"/>
	<path class="st0" d="M66.9,24.2v62.9"/>
</g>
</svg>
