<?xml version="1.0" encoding="utf-8"?>
<!-- Generator: Adobe Illustrator 26.0.3, SVG Export Plug-In . SVG Version: 6.00 Build 0)  -->
<svg version="1.1" id="_x32_" transform="matrix(-1, 0, 0, 1, 0, 0)rotate(45)"
	 xmlns="http://www.w3.org/2000/svg" xmlns:xlink="http://www.w3.org/1999/xlink" x="0px" y="0px" viewBox="0 0 100 100"
	 style="enable-background:new 0 0 100 100;" xml:space="preserve">
<style type="text/css">
	.st0{fill:#25424F;}
</style>
<g>
</g>
<g>
</g>
<g id="icon">
	<g>
		<path class="st0" d="M84.1,45.1H16c-5.8,0-10.5,4.7-10.5,10.5v9.7v3.1L8.5,69c1.8,0.3,3.1,1.8,3.1,3.6c0,1.8-1.3,3.4-3.1,3.6
			l-3.1,0.4v3.1v9.7c0,5.8,4.7,10.5,10.5,10.5h68.1c5.8,0,10.5-4.7,10.5-10.5v-9.7v-3.4l-3.4-0.2c-1.9-0.1-3.5-1.7-3.5-3.6
			c0-1.9,1.5-3.5,3.5-3.6l3.4-0.2v-3.4v-9.7C94.6,49.8,89.9,45.1,84.1,45.1z M91,65.3c-3.8,0.2-6.9,3.3-6.9,7.2
			c0,3.9,3.1,7.1,6.9,7.2v9.7c0,3.8-3.1,6.9-6.9,6.9H16c-3.8,0-6.9-3.1-6.9-6.9v-9.7c3.5-0.5,6.2-3.5,6.2-7.2c0-3.7-2.7-6.7-6.2-7.2
			v-9.7c0-3.8,3.1-6.9,6.9-6.9h68.1c3.8,0,6.9,3.1,6.9,6.9V65.3z"/>
		<rect x="26.1" y="85.8" class="st0" width="2.4" height="6.2"/>
		<rect x="26.1" y="74.9" class="st0" width="2.4" height="6.2"/>
		<rect x="26.1" y="64" class="st0" width="2.4" height="6.2"/>
		<rect x="26.1" y="53.1" class="st0" width="2.4" height="6.2"/>
		<polygon class="st0" points="21.7,35.3 19.6,36.5 22.7,41.9 24.7,40.7 		"/>
		<path class="st0" d="M97.2,35l-4.7-8.5l-1.7-3L87.7,25c-1.7,0.9-3.9,0.2-4.8-1.5c-1-1.7-0.4-3.8,1.3-4.9l2.9-1.8l-1.7-3l-4.7-8.5
			c-2.8-5.1-9.2-6.9-14.3-4.1L6.9,34.4C1.8,37.3,0,43.7,2.8,48.7L3,49c0.6-1.2,1.5-2.4,2.4-3.4c-0.9-3.1,0.3-6.5,3.2-8.1L68.2,4.5
			c3.3-1.9,7.6-0.7,9.4,2.7l4.7,8.5c-3.3,2-4.4,6.3-2.5,9.7c1.9,3.4,6.1,4.7,9.6,3l4.7,8.5c1.4,2.5,1,5.6-0.7,7.7
			c0.9,0.8,1.8,1.7,2.5,2.7C98.7,43.9,99.4,39,97.2,35z"/>
	</g>
</g>
<g id="lion_00000137815152399603301420000003380741071568244901_">
	<g>
		<g>
			<path class="st0" d="M72.2,66.5c-0.6-1.4-1.6-2.7-2.8-3.6c-0.9-0.7-1.7-1.2-2.4-1.5l2-0.9l-1.1-0.7c-1.2-0.8-2.8-1.2-4.5-1.2
				c-1.5,0-2.8,0.3-3.2,0.4c-0.5-0.1-1.7-0.4-3.2-0.4c-1.8,0-3.3,0.4-4.5,1.2l-1.1,0.7l2,0.9c-0.7,0.3-1.6,0.8-2.4,1.5
				c-1.2,1-2.1,2.2-2.8,3.6c-0.8,1.8-1.1,3.8-1,6.2l0,0.8l1.1-0.3c0,0.7,0,1.7,0.3,2.8c0.2,1.2,0.6,2.4,1.1,3.4
				c0.6,1.3,1.5,2.4,2.5,3.3l0.7,0.6l0.4-0.7c0.3,0.5,0.8,1.1,1.3,1.7c1.2,1.4,3.1,3.2,5.5,4.1l0.3,0.1l0.3-0.1
				c2.4-0.9,4.3-2.7,5.5-4.1c0.6-0.6,1-1.2,1.3-1.7l0.4,0.7l0.7-0.6c1-0.9,1.9-2,2.5-3.3c0.5-1,0.9-2.2,1.1-3.4
				c0.2-1.1,0.3-2.2,0.3-2.8l1.1,0.3l0-0.8C73.4,70.3,73,68.2,72.2,66.5z M68.3,63.6c0.1,0.1,0.2,0.2,0.3,0.3c1,0.9,1.8,1.9,2.4,3.1
				c0.1,0.1,0.1,0.3,0.2,0.4c-1.2,0.1-2.1,0.5-2.6,1c-0.1,0.1-0.2,0.2-0.3,0.3c-0.4-1-1-2.1-2-2.9c0,0-0.1,0-0.1-0.1
				C66.3,65.2,66.7,64.2,68.3,63.6z M63.9,75.3c0.4,0.6,0.8,1.5,0.8,2.5c0,0.7-0.3,1.3-0.9,1.8l-0.3-0.1l-3.2-1.2
				c0.1-0.5,0.2-1,0.5-1.2c0.5-0.4,1.4-1,0-1.1c0,0-0.3,0.2-0.7,0.2c-0.4,0-0.7-0.2-0.7-0.2c-1.4,0.1-0.5,0.7,0,1.1
				c0.3,0.2,0.4,0.8,0.5,1.2l-3.2,1.2l-0.3,0.1c-0.5-0.5-0.8-1.1-0.9-1.8c-0.1-1.8,1.6-3.6,1.7-3.6l-0.5-0.5l-0.5-0.5
				c0,0-0.6,0.6-1.1,1.4l-2.4-2.6c0.1-0.8,0.4-3.5,2.2-5c1.2-1,2.9-1.3,5-0.9l0.1,0l0.1,0c2.1-0.4,3.8-0.1,5,0.9
				c1.8,1.5,2.1,4.2,2.2,5l-2.4,2.6c-0.5-0.8-1-1.3-1.1-1.4l-1,1C63.1,74.1,63.5,74.6,63.9,75.3z M62.3,81.4c0,0,0,0-0.1,0
				c-0.2,0-0.4-0.1-0.7-0.1c-0.4-0.1-0.9-0.2-1.4-0.2c-0.5,0-1,0.1-1.4,0.2c-0.3,0.1-0.5,0.1-0.7,0.1c-0.1,0-0.1,0-0.1,0
				c-0.1-0.1-0.1-0.5,0-0.9l2.2-0.8l2.2,0.8C62.4,80.9,62.4,81.3,62.3,81.4z M54.4,60.3c0.7-0.2,1.6-0.3,2.5-0.3c1.7,0,3,0.4,3,0.4
				l0.2,0.1l0.2-0.1c0,0,1.4-0.4,3-0.4c0.9,0,1.7,0.1,2.5,0.3l-3.1,1.4l2.2,0.4c0,0,0.8,0.2,1.9,0.7c-0.9,0.5-1.4,1.2-1.7,1.7
				c-0.1,0.2-0.2,0.4-0.2,0.6c-1.3-0.6-2.9-0.7-4.7-0.4c-1.8-0.3-3.4-0.2-4.7,0.4c-0.1-0.2-0.1-0.4-0.2-0.6
				c-0.3-0.5-0.8-1.2-1.7-1.7c1-0.5,1.8-0.7,1.8-0.7l2.2-0.4L54.4,60.3z M49.3,67.1c0.5-1.2,1.3-2.3,2.4-3.1
				c0.1-0.1,0.2-0.2,0.4-0.3c0.9,0.3,1.5,0.8,1.9,1.4c0.1,0.2,0.2,0.5,0.3,0.7c0,0-0.1,0-0.1,0.1c-1,0.8-1.6,1.9-2,2.9
				c-0.1-0.1-0.2-0.2-0.3-0.3c-0.5-0.4-1.4-0.9-2.6-1C49.2,67.3,49.2,67.2,49.3,67.1z M70.5,71.4l0.1,1c0,0,0.1,1.1-0.1,2.6
				c0,0,0,0,0,0c0,0,0,0,0,0c0,0,0,0,0,0.1c0,0,0,0,0,0c0,0,0,0,0,0c0,0,0,0,0,0c0,0.1,0,0.2,0,0.3c0,0,0,0,0,0
				c0,0.3-0.1,0.6-0.1,0.8c0,0,0,0,0,0c0,0,0,0,0,0c-0.1,0.3-0.1,0.7-0.2,0.9c0,0,0,0,0,0c0,0,0,0,0,0c0,0,0,0,0,0c0,0,0,0,0,0
				c0,0,0,0,0,0c-0.2,0.6-0.4,1.2-0.7,1.8c-0.4,0.8-0.9,1.6-1.5,2.2l-0.7-1.3l-0.6,1.1c0,0-0.7,1.2-1.9,2.6c-1,1.2-2.7,2.8-4.7,3.6
				c-2-0.8-3.6-2.4-4.7-3.6c-1.2-1.4-1.9-2.5-1.9-2.6L53,79.8l-0.7,1.3c-0.6-0.6-1.1-1.4-1.5-2.2c-0.3-0.6-0.5-1.2-0.7-1.8
				c0,0,0,0,0,0c0,0,0,0,0,0c0,0,0,0,0,0c0,0,0,0,0-0.1h0C50,76.9,50,76.7,50,76.5c0-0.2-0.1-0.4-0.1-0.6c0-0.2-0.1-0.5-0.1-0.7
				c0-0.1,0-0.2,0-0.3c-0.2-1.4-0.1-2.5-0.1-2.5l0.1-1l-1.3,0.3c0-1,0.1-2,0.3-2.8c0.8,0,1.6,0.2,2.1,0.6c0.4,0.3,0.7,0.7,0.7,0.8
				c-0.2,1-0.2,1.7-0.2,1.8l0,0.3l0.8,0.9c0,0,0,0,0,0c0,0,0,0,0,0l0,0c0,0,0,0,0,0c0,0,0,0,0,0c0,0,0.1,0.1,0.1,0.1
				c0,0.1,0.1,0.1,0.1,0.2c0.1,0.1,0.2,0.2,0.3,0.3c0.1,0.1,0.2,0.2,0.3,0.3c0,0,0,0,0,0c0,0,0,0,0,0c0,0,0,0,0,0c0,0,0,0,0,0
				c0,0,0,0,0,0c0.1,0,0.1,0.1,0.1,0.1c0,0,0,0.1,0.1,0.1c0,0,0,0,0,0l1.2,1.4c-0.2,0.6-0.4,1.3-0.3,2c0.1,1.2,0.6,2.2,1.7,3.1
				l0.3,0.3l0.4-0.1c0,0.6,0.2,1.2,0.7,1.5c0.3,0.2,0.6,0.3,0.9,0.3c0.4,0,0.7-0.1,1-0.2c0.3-0.1,0.7-0.2,1-0.2c0.4,0,0.7,0.1,1,0.2
				c0.3,0.1,0.7,0.2,1,0.2c0.3,0,0.6-0.1,0.9-0.3c0.5-0.3,0.7-0.9,0.7-1.5l0.4,0.1l0.3-0.3c1-0.9,1.6-1.9,1.7-3.1
				c0-0.7-0.1-1.4-0.3-2l1.2-1.3c0,0,0,0,0,0c0,0,0.1-0.1,0.1-0.1c0.1-0.1,0.1-0.1,0.2-0.2c0,0,0.1-0.1,0.1-0.1c0,0,0.1-0.1,0.1-0.1
				c0.1-0.1,0.2-0.2,0.3-0.3c0-0.1,0.1-0.1,0.1-0.2c0,0,0.1-0.1,0.1-0.1c0,0,0,0,0,0c0,0,0,0,0,0l0.8-0.9l0-0.3c0-0.1,0-0.8-0.2-1.8
				c0.1-0.3,0.9-1.5,2.9-1.5c0.2,0.9,0.3,1.8,0.3,2.8L70.5,71.4z"/>
		</g>
	</g>
</g>
<g id="lion">
	<g>
		<g>
			<path class="st0" d="M42.6,35c-0.6,1.4-0.8,3-0.7,4.5c0,0.4,0.1,0.8,0.2,1.2c2-0.1,4-0.2,6-0.3c-0.3-1.1-0.5-2.5,0.1-3.9
				c0.6-1.5,1.9-2.5,4-3.2l0.1,0l0.1-0.1c1.7-1.4,3.3-2,4.8-1.7c2.3,0.4,3.9,2.6,4.3,3.3l-0.8,3.5c-0.8-0.5-1.5-0.7-1.6-0.7L58.8,39
				c0,0,0.6,0.2,1.3,0.6c0.3,0.2,0.7,0.4,1,0.7c0.6,0,1.2,0,1.8,0c-0.3-0.4-0.6-0.8-0.9-1.1l0.4-1.8c0,0,0,0,0,0c0-0.1,0-0.1,0-0.2
				c0-0.1,0-0.1,0.1-0.2c0-0.1,0-0.1,0.1-0.2c0-0.1,0-0.1,0-0.2c0-0.1,0.1-0.3,0.1-0.4c0-0.1,0-0.1,0-0.2c0-0.1,0-0.1,0-0.2
				c0,0,0,0,0,0c0,0,0,0,0,0l0.3-1.2l-0.1-0.2c0-0.1-0.4-0.7-1.1-1.5c0-0.3,0-1.8,1.8-2.7c0.6,0.7,1.1,1.5,1.6,2.3L64,33l0.6,0.8
				c0,0,0.6,0.9,1.2,2.3c0,0,0,0,0,0c0,0,0,0,0,0c0,0,0,0,0,0.1c0,0,0,0,0,0c0,0,0,0,0,0c0,0,0,0,0,0c0,0.1,0.1,0.2,0.1,0.2
				c0,0,0,0,0,0c0.1,0.3,0.2,0.5,0.3,0.8c0,0,0,0,0,0c0,0,0,0,0,0c0.1,0.3,0.2,0.6,0.2,0.9c0,0,0,0,0,0c0,0,0,0,0,0c0,0,0,0,0,0
				c0,0,0,0,0,0c0,0,0,0,0,0c0.1,0.6,0.2,1.3,0.3,1.9c0,0.1,0,0.1,0,0.2c0.5,0,0.9,0,1.4,0c0-0.1,0-0.2,0-0.4
				c-0.1-1.1-0.3-2.3-0.7-3.5c-0.4-1.1-0.8-2-1.2-2.6l1.1-0.3l-0.4-0.8c-1-2.1-2.3-3.8-3.9-4.9c-1.3-0.9-2.7-1.6-4.2-1.9
				c-1.1-0.2-2.1-0.2-2.9-0.1l1.3-1.7L56,24c-1.5-0.1-3,0.3-4.5,1.2c-1.3,0.7-2.3,1.6-2.6,1.9c-0.5,0.1-1.7,0.5-3,1.2
				c-1.6,0.9-2.7,1.9-3.4,3.2l-0.6,1.2l2.2-0.2C43.5,33.1,43,34,42.6,35z M58.2,27.3c0.1,0,0.3,0,0.4,0.1c1.3,0.2,2.5,0.8,3.6,1.6
				c0.1,0.1,0.3,0.2,0.4,0.3c-1.1,0.7-1.6,1.5-1.9,2.1c-0.1,0.1-0.1,0.2-0.1,0.4c-0.8-0.7-1.9-1.3-3.2-1.5c0,0-0.1,0-0.1,0
				C57.2,29.6,57.2,28.5,58.2,27.3z M46.5,29.5c1.5-0.8,2.8-1.1,2.8-1.1l0.2,0l0.1-0.2c0,0,1-1,2.5-1.8c0.8-0.4,1.6-0.7,2.3-0.9
				l-2,2.7l2.1-0.7c0,0,0.8-0.3,1.9-0.3c-0.5,0.9-0.7,1.7-0.7,2.3c0,0.2,0,0.4,0,0.6c-1.4,0.1-2.9,0.8-4.3,2c-1.8,0.6-3.1,1.5-4,2.6
				c-0.1-0.1-0.3-0.2-0.5-0.4c-0.5-0.3-1.3-0.7-2.3-0.7c0.7-1,1.3-1.5,1.3-1.5l1.7-1.4L44.5,31C45.1,30.5,45.7,30,46.5,29.5z
				 M46.3,35.5c0.2,0.1,0.4,0.3,0.6,0.5c0,0,0,0.1,0,0.1c-0.5,1.2-0.5,2.4-0.4,3.5c-0.1,0-0.2-0.1-0.4-0.1c-0.7-0.1-1.7-0.1-2.8,0.4
				c0-0.1,0-0.3-0.1-0.4c-0.1-1.3,0.1-2.6,0.6-3.9c0.1-0.1,0.1-0.3,0.2-0.4C44.9,35,45.7,35.1,46.3,35.5z"/>
		</g>
	</g>
</g>
</svg>
