<?xml version="1.0" encoding="utf-8"?>
<!-- Generator: Adobe Illustrator 26.0.3, SVG Export Plug-In . SVG Version: 6.00 Build 0)  -->
<svg version="1.1" id="Layer_1" xmlns="http://www.w3.org/2000/svg" xmlns:xlink="http://www.w3.org/1999/xlink" x="0px" y="0px"
	 viewBox="0 0 100 100" style="enable-background:new 0 0 100 100;" xml:space="preserve">
<style type="text/css">
	.st0{fill:none;stroke:#25424F;stroke-width:3.25;stroke-linecap:round;stroke-linejoin:round;stroke-miterlimit:41.6667;}
	.st1{fill:none;stroke:#25424F;stroke-width:3.25;stroke-linecap:round;stroke-linejoin:round;stroke-miterlimit:16.6667;}
	.st2{fill:#25424F;}
</style>
<path class="st0" d="M35.2,34.9c9.6-8.7,19.2-17.4,28.9-26.1c1.1-1,2.2-2,3.3-3"/>
<path class="st1" d="M76.1,15.6L66.7,5.1c-4-4.5-6.5-4.3-12.5,1.1L35.6,23c-5.7,5.2-6.4,7.7-2.9,11.8c0.7-1.5,2.1-2.6,4.3-2.6
	c7.7,0.3,15.9,0.2,23.5,1.6c1.5,0.3,3.3,0.7,5,1.4l8.1-7.3C79.6,22.6,80.1,20.1,76.1,15.6z"/>
<ellipse class="st2" cx="19.7" cy="65.3" rx="5.3" ry="5.4"/>
<path class="st2" d="M100,32.6c0-2.3-0.6-7.8-7.6-9.6l-8.5-1.7c-0.2,0.5-0.3,0.9-0.5,1.3c-0.5,1.7-1.3,3.3-2.5,4.5l9.6,2
	c0,0-0.5,1.8-3,1.7H18.7V18.2c0-1.6,1.3-3,2.9-3.1l12.1,2.5c1.9-1.8,4-3.5,6-5.2L21.8,8.7c-5.2,0-9.4,4.2-9.4,9.4v12.7l-3.1,0
	C4.2,30.8,0,35,0,40.2v50.3c0,5.2,4.2,9.4,9.4,9.4h81.3c5.2,0,9.4-4.2,9.4-9.4L100,32.6z M90.7,93.7H9.4c-1.7,0-3.1-1.4-3.1-3.1
	V40.2c0-1.7,1.4-3.1,3.1-3.1h78.1c3.1,0,6.3-1.1,6.3-3.1v56.6h0C93.8,92.3,92.4,93.7,90.7,93.7z"/>
<path class="st0" d="M21.9,55.6H4c-0.4,0-0.8,0-1.1,0.1c0.3,3.5-0.3,6.8-1.2,10.4c0,2.9,0.2,5.8,0.1,8.7C2.5,74.9,3.2,75,4,75h17.9
	c5.4,0,9.7-4.3,9.7-9.7v0C31.6,60,27.3,55.6,21.9,55.6z"/>
</svg>
