<?xml version="1.0" encoding="utf-8"?>
<!-- Generator: Adobe Illustrator 26.0.3, SVG Export Plug-In . SVG Version: 6.00 Build 0)  -->
<svg version="1.1" id="Layer_1" xmlns="http://www.w3.org/2000/svg" xmlns:xlink="http://www.w3.org/1999/xlink" x="0px" y="0px"
	 viewBox="0 0 100 100" style="enable-background:new 0 0 100 100;" xml:space="preserve">
<style type="text/css">
	.st0{fill-rule:evenodd;clip-rule:evenodd;fill:#EFEAD6;}
</style>
<g id="background">
</g>
<g id="tracer">
</g>
<g id="icon">
	<path id="checkmark" class="st0" d="M50,100C22.4,100,0,77.7-0.1,50.1C-0.1,22.5,22.2,0,49.8,0c4.7,0,9.4,0.7,14,2l-4.5,7.4
		C36.9,4.3,14.5,18.3,9.4,40.7c-5.2,22.4,8.8,44.8,31.3,49.9c22.4,5.2,44.8-8.8,49.9-31.3c0.7-3.1,1.1-6.2,1.1-9.4
		c0-4.8-0.8-9.5-2.5-14l5.3-8.8c12.6,24.6,2.9,54.7-21.7,67.3C65.8,98.1,57.9,100,50,100z M53.8,64c-0.2,0.6-0.5,1.1-0.9,1.5
		c-0.8,0.8-1.9,1.2-3,1.1c-1.8,0.1-3.4-1-3.9-2.7L30.1,48c-1.4-1.5-1.2-3.9,0.3-5.3c1.4-1.3,3.6-1.3,5,0l13.5,13.5l30.8-45.7
		c1.1-2,3.6-2.8,5.7-1.7c0,0,0.1,0,0.1,0.1c2,1.2,2.7,3.9,1.5,5.9L53.8,64z"/>
</g>
</svg>
