<?xml version="1.0" encoding="utf-8"?>
<!-- Generator: Adobe Illustrator 26.0.3, SVG Export Plug-In . SVG Version: 6.00 Build 0)  -->
<svg version="1.1" id="YearCard" xmlns="http://www.w3.org/2000/svg" xmlns:xlink="http://www.w3.org/1999/xlink" x="0px" y="0px"
	 viewBox="0 0 100 100" style="enable-background:new 0 0 100 100;" xml:space="preserve">
<style type="text/css">
	.st0{fill:#25424F;}
</style>
<g id="background">
</g>
<g id="tracer">
</g>
<g id="icon">
	<path class="st0" d="M90.7,14H9.3C4.2,14,0,18.2,0,23.3v54.2c0,5.1,4.2,9.3,9.3,9.3h81.4c5.1,0,9.3-4.2,9.3-9.3V23.3
		C100,18.2,95.8,14,90.7,14L90.7,14z M9.3,19.1h81.4c2.3,0,4.2,1.9,4.2,4.2v4.2H5.1v-4.2C5.1,21,7,19.1,9.3,19.1L9.3,19.1z
		 M90.7,81.8H9.3c-2.3,0-4.2-1.9-4.2-4.2V32.6h89.8v44.9C94.9,79.9,93,81.8,90.7,81.8L90.7,81.8z M22.4,47.7c2.8,0,5-2.2,5-5
		s-2.2-5-5-5s-5,2.2-5,5l0,0C17.4,45.4,19.6,47.7,22.4,47.7L22.4,47.7z M22.4,40.5c1.2,0,2.2,1,2.2,2.2c0,1.2-1,2.2-2.2,2.2
		s-2.2-1-2.2-2.2l0,0l0,0C20.2,41.5,21.2,40.5,22.4,40.5L22.4,40.5z M22.4,49.3c-3.6,0-6.7,2.5-7.5,5.9l0,0.1c0,0.1,0,0.2,0,0.3
		c0,0.7,0.6,1.3,1.3,1.3c0.6,0,1.1-0.4,1.2-1l0,0c0.5-2.3,2.6-4,5-4s4.5,1.7,5,4l0,0c0.1,0.6,0.6,1,1.2,1c0.7,0,1.3-0.6,1.3-1.3
		c0-0.1,0-0.2,0-0.3l0,0C29,51.8,26,49.3,22.4,49.3L22.4,49.3L22.4,49.3z M48.7,40.3l-13.5,0c-0.7,0-1.3,0.6-1.3,1.2
		c0,0.7,0.6,1.2,1.3,1.2l0,0l13.5,0c0.7,0,1.3-0.6,1.3-1.2S49.4,40.3,48.7,40.3L48.7,40.3z"/>
</g>
<path class="st0" d="M48.7,46.9l-13.5,0c-0.7,0-1.3,0.6-1.3,1.2s0.6,1.2,1.3,1.2l0,0l13.5,0c0.7,0,1.3-0.6,1.3-1.2
	C50,47.4,49.4,46.9,48.7,46.9L48.7,46.9z"/>
<path class="st0" d="M48.7,53.6l-13.5,0c-0.7,0-1.3,0.6-1.3,1.2s0.6,1.2,1.3,1.2l0,0l13.5,0c0.7,0,1.3-0.6,1.3-1.2
	S49.4,53.6,48.7,53.6L48.7,53.6z"/>
<g id="layer1" transform="translate(177,203.34375)">
	<g id="g3071">
		<g id="layer1-6" transform="translate(-126.75612,74.491063)">
			<g id="g4683">
				<g id="g3697" transform="matrix(3.9718,0,0,3.9248,-1030.4,1039.1)">
					<path id="path3701" class="st0" d="M266.9-315.8c0,0,0-0.4,0-1.9l0-1.9h0.1h0.1v1.9v1.9H267L266.9-315.8 M250.7-317.7v-1.9h0.1
						h0.1v1.9v1.9h-0.1h-0.1V-317.7L250.7-317.7z M251-317.7v-1.9h0.1h0.1v1.9v1.9h-0.1H251V-317.7L251-317.7z M258.8-317.7v-1.9
						h0.1h0.1v1.9v1.9h-0.1h-0.1V-317.7L258.8-317.7z M259.1-317.7v-1.9h0.1h0.1v1.9v1.9h-0.1h-0.1V-317.7L259.1-317.7z
						 M267.2-317.7v-1.9h0.1h0.1v1.9v1.9h-0.1h-0.1V-317.7L267.2-317.7z M251.7-317.8v-1.8h0.2h0.2v1.8v1.8h-0.2h-0.2V-317.8z
						 M252.2-317.8v-1.8h0.1h0.1v1.8v1.8h-0.1h-0.1V-317.8z M252.6-317.8v-1.8h0.2h0.2v1.8v1.8h-0.2h-0.2V-317.8z M253.3-317.8v-1.8
						h0.2h0.2v1.8v1.8h-0.2h-0.2V-317.8z M254-317.8v-1.8h0.2h0.2v1.8v1.8h-0.2H254V-317.8z M254.5-317.8v-1.8h0.2h0.2v1.8v1.8h-0.2
						h-0.2V-317.8z M255.1-317.8v-1.8h0.4h0.4v1.8v1.8h-0.4h-0.4V-317.8z M256-317.8v-1.8h0.1h0.1v1.8v1.8h-0.1H256V-317.8z
						 M256.3-317.8v-1.8h0.1h0.1v1.8v1.8h-0.1h-0.1V-317.8z M257-317.8v-1.8h0.2h0.2v1.8v1.8h-0.2H257V-317.8z M257.5-317.8v-1.8
						h0.3h0.3v1.8v1.8h-0.3h-0.3V-317.8z M258.4-317.8v-1.8h0.1h0.1v1.8v1.8h-0.1h-0.1V-317.8z M259.5-317.8v-1.8h0.1h0.1v1.8v1.8
						h-0.1h-0.1V-317.8z M259.8-317.8v-1.8h0.1h0.1v1.8v1.8h-0.1h-0.1V-317.8z M260.7-317.8v-1.8h0.1h0.1v1.8v1.8h-0.1h-0.1V-317.8z
						 M261.4-317.8v-1.8h0.1h0.1v1.8v1.8h-0.1h-0.1V-317.8z M261.9-317.8v-1.8h0.1h0.1v1.8v1.8h-0.1h-0.1V-317.8z M262.5-317.8v-1.8
						h0.1h0.1v1.8v1.8h-0.1h-0.1V-317.8z M263.2-317.8v-1.8h0.3h0.3v1.8v1.8h-0.3h-0.3V-317.8z M263.9-317.8v-1.8h0.1h0.1v1.8v1.8
						H264h-0.1V-317.8z M264.4-317.8v-1.8h0.3h0.3v1.8v1.8h-0.3h-0.3V-317.8z M265.3-317.8v-1.8h0.1h0.1v1.8v1.8h-0.1h-0.1V-317.8z
						 M265.7-317.8v-1.8h0.3h0.3v1.8v1.8H266h-0.3V-317.8z M266.6-317.8v-1.8h0.1h0.1v1.8v1.8h-0.1h-0.1V-317.8z"/>
				</g>
			</g>
		</g>
		<g id="flowRoot3064" transform="matrix(1.4176012,0,0,1.4176012,-268.62582,-1240.9429)">
		</g>
	</g>
</g>
</svg>
