<svg viewBox="0 0 200 200" xmlns="http://www.w3.org/2000/svg">
  <path fill="#A7F0BA" d="M35.9,-63.8C43.2,-58.1,43.3,-41.6,49,-29.2C54.7,-16.7,65.8,-8.4,69.6,2.2C73.4,12.8,69.9,25.6,64,37.6C58.1,49.6,49.9,60.8,38.8,68.3C27.7,75.8,13.9,79.6,-1.1,81.4C-16,83.2,-32,83.2,-43.2,75.8C-54.4,68.3,-60.9,53.6,-69,39.8C-77.2,25.9,-87,13,-87.1,-0.1C-87.3,-13.1,-77.7,-26.2,-64.8,-31.9C-52,-37.5,-35.8,-35.7,-24.4,-39.1C-13.1,-42.6,-6.5,-51.2,3.9,-57.9C14.3,-64.7,28.7,-69.6,35.9,-63.8Z" transform="translate(100 100)" />
</svg>